<svg xmlns="http://www.w3.org/2000/svg" width="28" height="28" viewBox="0 0 28 28" fill="none">
  <path d="M10 7.5V16.25" stroke="#F2F4F1" stroke-width="1.55" stroke-linecap="round"/>
  <path d="M10 16.25C10.83 15.6 11.78 15.35 12.5 15.35C14.09 15.35 15.35 16.47 15.35 17.98C15.35 19.54 13.96 20.75 12.29 20.75C10.74 20.75 9.48 19.73 9.3 18.39" stroke="#F2F4F1" stroke-width="1.55" stroke-linecap="round" stroke-linejoin="round"/>
  <path d="M13.1 8.45L17.65 7.2C18.43 6.99 19.1 7.55 19.1 8.37V13.95" stroke="#F2F4F1" stroke-width="1.55" stroke-linecap="round" stroke-linejoin="round"/>
  <path d="M19.1 13.95C19.88 13.34 20.78 13.12 21.42 13.12C22.88 13.12 24 14.15 24 15.53C24 16.96 22.8 18.05 21.35 18.05C20.02 18.05 18.93 17.19 18.77 16.03" stroke="#F2F4F1" stroke-width="1.55" stroke-linecap="round" stroke-linejoin="round"/>
</svg>
